<?xml version="1.0" encoding="UTF-8"?>
<svg xmlns="http://www.w3.org/2000/svg" viewBox="193 340 185 185" width="185" height="185">

<!-- 바차트 4개 막대 — 원본 좌표 그대로 -->

<!-- 막대 1: 가장 왼쪽, 가장 낮음 (#68C8E9 light blue) -->
<path d="M0,0 L10,0 L10,1 L12,1 L12,2 L14,2 L14,3 L15,3 L15,4 L16,3 L16,4 L17,4 L17,5 L18,5 L18,6 L19,6 L19,7 L20,7 L20,9 L21,9 L21,10 L22,10 L22,12 L23,12 L23,14 L24,14 L24,96 L23,96 L23,99 L22,99 L22,101 L21,101 L21,103 L20,103 L20,105 L19,105 L19,106 L18,106 L18,107 L17,107 L17,108 L15,108 L15,109 L13,109 L13,110 L11,110 L11,111 L-1,111 L-1,110 L-3,110 L-3,109 L-5,109 L-5,108 L-6,108 L-6,107 L-8,107 L-8,106 L-9,106 L-9,104 L-10,104 L-10,103 L-11,103 L-11,101 L-12,101 L-12,98 L-13,98 L-13,12 L-12,12 L-12,10 L-11,10 L-11,8 L-10,8 L-10,7 L-9,7 L-9,6 L-8,6 L-8,5 L-7,5 L-7,4 L-6,4 L-6,3 L-5,3 L-5,2 L-3,2 L-3,1 L0,1 Z" fill="#68C8E9" transform="translate(213,405)"/>

<!-- 막대 2: 가장 높음 (#49BCE2 medium-light blue) -->
<path d="M0,0 L12,0 L12,1 L15,1 L15,2 L17,2 L17,3 L18,3 L18,4 L20,4 L20,5 L21,5 L21,7 L22,7 L22,8 L23,8 L23,10 L24,10 L24,12 L25,12 L25,156 L24,156 L24,159 L23,159 L23,161 L22,161 L22,162 L21,162 L21,163 L20,163 L20,164 L19,164 L19,165 L18,165 L18,166 L17,166 L17,167 L15,167 L15,168 L13,168 L13,169 L1,169 L1,168 L-1,168 L-1,167 L-3,167 L-3,166 L-4,166 L-4,165 L-6,165 L-6,164 L-7,164 L-7,162 L-8,162 L-8,161 L-9,161 L-9,159 L-10,159 L-10,156 L-11,156 L-11,153 L-12,153 L-12,14 L-11,14 L-11,11 L-10,11 L-10,9 L-9,9 L-9,7 L-8,7 L-8,6 L-7,6 L-7,5 L-6,5 L-6,4 L-5,4 L-5,3 L-4,3 L-4,2 L-2,2 L-2,1 L0,1 Z" fill="#49BCE2" transform="translate(265,347)"/>

<!-- 막대 3: (#35B5DF) -->
<path d="M0,0 L8,0 L8,1 L12,1 L12,2 L14,2 L14,3 L15,3 L15,4 L17,4 L17,5 L18,5 L18,7 L19,7 L19,8 L20,8 L20,10 L21,10 L21,12 L22,12 L22,14 L23,14 L23,121 L22,121 L22,124 L21,124 L21,127 L20,127 L20,129 L19,129 L19,130 L18,130 L18,131 L17,131 L17,132 L16,132 L16,133 L14,133 L14,134 L12,134 L12,135 L9,135 L9,136 L-1,136 L-1,135 L-3,135 L-3,134 L-5,134 L-5,133 L-7,133 L-7,132 L-8,132 L-8,131 L-9,131 L-9,130 L-10,130 L-10,128 L-11,128 L-11,126 L-12,126 L-12,124 L-13,124 L-13,121 L-14,121 L-14,14 L-13,14 L-13,12 L-12,12 L-12,10 L-11,10 L-11,8 L-10,8 L-10,7 L-9,7 L-9,6 L-8,6 L-8,5 L-7,5 L-7,4 L-6,4 L-6,3 L-4,3 L-4,2 L-2,2 L-2,1 L0,1 Z" fill="#35B5DF" transform="translate(321,380)"/>

<!-- 막대 4: 가장 오른쪽, 가장 짧음 (#1AACDA) -->
<path d="M0,0 L10,0 L10,1 L13,1 L13,2 L15,2 L15,3 L16,3 L16,4 L17,4 L17,5 L18,5 L18,6 L19,6 L19,7 L20,7 L20,8 L21,8 L21,10 L22,10 L22,12 L23,12 L23,80 L22,80 L22,83 L21,83 L21,85 L20,85 L20,86 L19,86 L19,88 L18,88 L18,89 L16,89 L16,90 L15,90 L15,91 L13,91 L13,92 L10,92 L10,93 L-1,93 L-1,92 L-3,92 L-3,91 L-5,91 L-5,90 L-6,90 L-6,89 L-7,89 L-7,88 L-8,88 L-8,87 L-9,87 L-9,86 L-10,86 L-10,84 L-11,84 L-11,83 L-12,83 L-12,80 L-13,80 L-13,12 L-12,12 L-12,10 L-11,10 L-11,8 L-10,8 L-10,7 L-9,7 L-9,6 L-8,6 L-8,5 L-7,5 L-7,4 L-6,4 L-6,3 L-5,3 L-5,2 L-3,2 L-3,1 L0,1 Z" fill="#1AACDA" transform="translate(374,423)"/>

</svg>